<?xml version="1.0" standalone="no"?>
<!DOCTYPE svg PUBLIC "-//W3C//DTD SVG 20010904//EN"
 "http://www.w3.org/TR/2001/REC-SVG-20010904/DTD/svg10.dtd">
<svg version="1.0" xmlns="http://www.w3.org/2000/svg"
 width="700.000000pt" height="700.000000pt" viewBox="0 0 700.000000 700.000000"
 preserveAspectRatio="xMidYMid meet">
<metadata>
Created by potrace 1.11, written by Peter Selinger 2001-2013
</metadata>
<g transform="translate(0.000000,700.000000) scale(0.100000,-0.100000)"
fill="#000000" stroke="none">
<path d="M567 6659 c-94 -22 -179 -96 -213 -185 -19 -48 -19 -121 -19 -2959
l0 -2910 25 -50 c35 -71 96 -128 164 -154 l57 -21 2932 2 2932 3 42 23 c66 35
110 79 140 140 l28 57 0 2920 0 2920 -23 46 c-31 64 -85 117 -151 148 l-56 26
-2910 2 c-1675 0 -2926 -3 -2948 -8z m4395 -966 c26 -12 68 -42 93 -68 170
-169 110 -462 -111 -545 -54 -20 -73 -20 -1209 -20 l-1155 0 0 -600 0 -600
1038 0 c1153 0 1109 2 1209 -66 136 -93 179 -267 104 -419 -36 -73 -82 -117
-161 -154 l-55 -26 -1067 -3 -1068 -2 0 -600 0 -600 1163 -2 1162 -3 55 -26
c261 -123 258 -483 -5 -606 l-60 -28 -1355 0 c-1280 0 -1358 1 -1407 18 -58
20 -133 82 -169 139 -57 90 -55 -13 -52 2070 l3 1915 35 68 c42 81 106 140
182 166 50 18 119 18 1418 16 l1365 -2 47 -22z"/>
</g>
</svg>
